<?xml version="1.0" encoding="utf-8"?>
<!-- Generator: Adobe Illustrator 23.0.1, SVG Export Plug-In . SVG Version: 6.00 Build 0)  -->
<svg version="1.1" id="Layer_1" xmlns="http://www.w3.org/2000/svg" xmlns:xlink="http://www.w3.org/1999/xlink" x="0px" y="0px"
	 viewBox="0 0 127.64 109.76" style="enable-background:new 0 0 127.64 109.76;" xml:space="preserve">
<style type="text/css">
	.st0{display:none;fill:#FFFFFF;}
	.st1{fill:#FFFFFF;}
</style>
<path class="st0" d="M16.48,46.34c27.43,0,54.85,0,82.28,0c4.04,0,8.07,0,12.11,0c4.18,0,4.19-6.5,0-6.5c-27.43,0-54.85,0-82.28,0
	c-4.04,0-8.07,0-12.11,0c-1.76,0-3.25,1.49-3.25,3.25c0,1.92,0,3.83,0,5.75c0,1.76,1.49,3.25,3.25,3.25c0.91,0,1.82,0,2.73,0
	c-1.08-1.08-2.17-2.17-3.25-3.25c0,6.98,0,13.95,0,20.93c0,1.76,1.49,3.25,3.25,3.25c25.96,0,51.93,0,77.89,0c3.68,0,7.36,0,11.03,0
	c1.76,0,3.25-1.49,3.25-3.25c0-6.98,0-13.95,0-20.93c-1.08,1.08-2.17,2.17-3.25,3.25c0.91,0,1.82,0,2.73,0
	c1.76,0,3.25-1.49,3.25-3.25c0-1.92,0-3.83,0-5.75c0-4.18-6.5-4.19-6.5,0c0,1.92,0,3.83,0,5.75c1.08-1.08,2.17-2.17,3.25-3.25
	c-0.91,0-1.82,0-2.73,0c-1.76,0-3.25,1.49-3.25,3.25c0,6.98,0,13.95,0,20.93c1.08-1.08,2.17-2.17,3.25-3.25
	c-25.96,0-51.93,0-77.89,0c-3.68,0-7.36,0-11.03,0c1.08,1.08,2.17,2.17,3.25,3.25c0-6.98,0-13.95,0-20.93
	c0-1.76-1.49-3.25-3.25-3.25c-0.91,0-1.82,0-2.73,0c1.08,1.08,2.17,2.17,3.25,3.25"/>
<rect x="16.52" y="42.29" class="st1" width="94.42" height="5.06"/>
<rect x="22.52" y="48.34" class="st1" width="82.42" height="18.06"/>
</svg>
