<?xml version="1.0" encoding="utf-8"?>
<!-- Generator: Adobe Illustrator 23.0.1, SVG Export Plug-In . SVG Version: 6.00 Build 0)  -->
<svg version="1.1" id="Layer_1" xmlns="http://www.w3.org/2000/svg" xmlns:xlink="http://www.w3.org/1999/xlink" x="0px" y="0px"
	 viewBox="0 0 127.64 109.76" style="enable-background:new 0 0 127.64 109.76;" xml:space="preserve">
<style type="text/css">
	.st0{display:none;fill:#FFFFFF;}
	.st1{fill:#FFFFFF;}
</style>
<path class="st0" d="M16.48,46.34c27.43,0,54.85,0,82.28,0c4.04,0,8.07,0,12.11,0c4.18,0,4.19-6.5,0-6.5c-27.43,0-54.85,0-82.28,0
	c-4.04,0-8.07,0-12.11,0c-1.76,0-3.25,1.49-3.25,3.25c0,1.92,0,3.83,0,5.75c0,1.76,1.49,3.25,3.25,3.25c0.91,0,1.82,0,2.73,0
	c-1.08-1.08-2.17-2.17-3.25-3.25c0,6.98,0,13.95,0,20.93c0,1.76,1.49,3.25,3.25,3.25c25.96,0,51.93,0,77.89,0c3.68,0,7.36,0,11.03,0
	c1.76,0,3.25-1.49,3.25-3.25c0-6.98,0-13.95,0-20.93c-1.08,1.08-2.17,2.17-3.25,3.25c0.91,0,1.82,0,2.73,0
	c1.76,0,3.25-1.49,3.25-3.25c0-1.92,0-3.83,0-5.75c0-4.18-6.5-4.19-6.5,0c0,1.92,0,3.83,0,5.75c1.08-1.08,2.17-2.17,3.25-3.25
	c-0.91,0-1.82,0-2.73,0c-1.76,0-3.25,1.49-3.25,3.25c0,6.98,0,13.95,0,20.93c1.08-1.08,2.17-2.17,3.25-3.25
	c-25.96,0-51.93,0-77.89,0c-3.68,0-7.36,0-11.03,0c1.08,1.08,2.17,2.17,3.25,3.25c0-6.98,0-13.95,0-20.93
	c0-1.76-1.49-3.25-3.25-3.25c-0.91,0-1.82,0-2.73,0c1.08,1.08,2.17,2.17,3.25,3.25"/>
<path class="st1" d="M27.87,70.84c0,2.76,0,5.53,0,8.29c0,1.12,0.95,2.07,2.07,2.07c7.6,0,15.19,0,22.79,0c12.16,0,24.31,0,36.47,0
	c2.78,0,5.55,0,8.33,0c1.12,0,2.07-0.95,2.07-2.07c0-5.49,0-10.98,0-16.47c0-8.71,0-17.42,0-26.13c0-2.02,0-4.05,0-6.07
	c0-1.12-0.95-2.07-2.07-2.07c-5.53,0-11.05,0-16.58,0c-1.13,0-2.05,0.95-2.07,2.07c-0.01,0.35-0.03,0.71-0.06,1.06
	c-0.03,0.4-0.08,0.8-0.12,1.2c-0.07,0.64,0.07-0.41-0.04,0.27c-0.04,0.29-0.09,0.58-0.14,0.87c-0.54,3.2-1.45,6.33-2.67,9.33
	c-0.15,0.37-0.03,0.07,0,0c-0.05,0.11-0.09,0.22-0.14,0.33c-0.1,0.22-0.19,0.44-0.29,0.66c-0.23,0.51-0.47,1.01-0.72,1.51
	c-0.5,0.99-1.03,1.96-1.61,2.9c-1.29,2.11-2.48,3.73-4.05,5.48c-3.77,4.21-8.3,7.4-13.47,9.76c-7.99,3.65-16.92,4.86-25.63,4.95
	c-2.67,0.03-2.67,4.17,0,4.14"/>
</svg>
